<svg width="166" height="131" viewBox="0 0 166 131" fill="none" xmlns="http://www.w3.org/2000/svg">
<path d="M68.7367 3C22.9034 50.3333 -41.2633 141.2 68.7367 126C206.237 107 183.237 40 68.7367 3Z" fill="#5CEC45" stroke="black" stroke-width="5"/>
<path d="M49.2261 73.142C31.41 72.61 -2.35924 67.2459 5.09196 50.0459C14.406 28.5459 50.0544 54.8031 49.2261 73.142Z" fill="white" stroke="black" stroke-width="5"/>
<path d="M66.7181 71C85.8305 62.4685 119.664 42.3943 102.096 30.3498C80.1374 15.2941 55.7386 54.9406 66.7181 71Z" fill="white" stroke="black" stroke-width="5"/>
<path d="M135.589 62.7925C126.089 76.4592 112.789 103.292 135.589 101.292C164.089 98.7925 158.589 51.2925 135.589 62.7925Z" fill="#5CEC45" stroke="black" stroke-width="5"/>
<path d="M26.565 54.5626C28.065 56.5626 30.165 60.6626 26.565 61.0626C22.065 61.5626 21.565 51.5626 26.565 54.5626Z" stroke="black" stroke-width="5"/>
<path d="M80.565 47.5626C82.065 49.5626 84.165 53.6626 80.565 54.0626C76.065 54.5626 75.565 44.5626 80.565 47.5626Z" stroke="black" stroke-width="5"/>
<path d="M62.565 92.5626C64.065 94.5626 66.165 98.6626 62.565 99.0626C58.065 99.5626 57.565 89.5626 62.565 92.5626Z" stroke="black" stroke-width="5"/>
</svg>
