<svg width="135" height="125" viewBox="0 0 135 125" fill="none" xmlns="http://www.w3.org/2000/svg">
<path d="M77.4999 7.17121C39.0999 -14.8288 17.1667 55.5045 4 94.1712C-8.73958 125.171 123.5 122.171 130 109.671C136.5 97.1712 125.5 34.6712 77.4999 7.17121Z" fill="#E14141" stroke="black" stroke-width="5"/>
<path d="M89.7426 26.4599C73.4693 17.1067 76.1815 38.6709 79.5718 50.6222C79.5718 56.8577 89.7426 69.3286 98.3485 65.4314C106.955 61.5343 110.084 38.1513 89.7426 26.4599Z" fill="white" stroke="black" stroke-width="5"/>
<path d="M40.7426 26.4599C24.4693 17.1067 27.1815 38.6709 30.5718 50.6222C30.5718 56.8577 40.7426 69.3286 49.3485 65.4314C57.9545 61.5343 61.0841 38.1513 40.7426 26.4599Z" fill="white" stroke="black" stroke-width="5"/>
<path d="M89.5 48.6713C91.3333 47.1713 95 45.0713 95 48.6713C95 53.1713 89.5 55.6714 89.5 48.6713Z" stroke="black" stroke-width="5"/>
<path d="M80 91.3014C83 88.9392 89 85.6322 89 91.3014C89 98.388 80 102.325 80 91.3014Z" stroke="black" stroke-width="9"/>
<path d="M6.3392 94.3667C-9.7294 81.4546 31.311 77.2734 37.3485 83.4381C43.386 89.6028 51.2754 104.854 45.4539 110.433C38.177 117.407 26.425 110.507 6.3392 94.3667Z" fill="#F34444" stroke="black" stroke-width="5"/>
<path d="M42 49.1589C43.8333 47.6589 47.5 45.5589 47.5 49.1589C47.5 53.6589 42 56.1589 42 49.1589Z" stroke="black" stroke-width="5"/>
</svg>
